<svg id="Layer_1" data-name="Layer 1" xmlns="http://www.w3.org/2000/svg" viewBox="0 0 1366 3349"><defs><style>.cls-1{fill:#0a031a;}.cls-2{fill:#fdfdff;}</style></defs><title>backcolour</title><rect class="cls-1" width="1366" height="3349"/><circle class="cls-2" cx="426" cy="602" r="1"/><circle class="cls-2" cx="507" cy="820" r="1"/><circle class="cls-2" cx="151" cy="67" r="1"/><circle class="cls-2" cx="244" cy="563" r="1"/><circle class="cls-2" cx="295" cy="749" r="1"/><circle class="cls-2" cx="457" cy="152" r="1"/><circle class="cls-2" cx="1313" cy="39" r="1"/><circle class="cls-2" cx="105" cy="174" r="1"/><circle class="cls-2" cx="252" cy="301" r="1"/><circle class="cls-2" cx="303" cy="487" r="1"/><circle class="cls-2" cx="1196" cy="557" r="1"/><circle class="cls-2" cx="1219" cy="369" r="1"/><circle class="cls-2" cx="1277" cy="775" r="1"/><circle class="cls-2" cx="867" cy="391" r="1"/><circle class="cls-2" cx="1014" cy="518" r="1"/><circle class="cls-2" cx="1065" cy="704" r="1"/><circle class="cls-2" cx="1190" cy="267" r="1"/><circle class="cls-2" cx="1213" cy="79" r="1"/><circle class="cls-2" cx="1271" cy="485" r="1"/><circle class="cls-2" cx="861" cy="101" r="1"/><circle class="cls-2" cx="1008" cy="228" r="1"/><circle class="cls-2" cx="1059" cy="414" r="1"/><circle class="cls-2" cx="755" cy="1201" r="1"/><circle class="cls-2" cx="943" cy="1224" r="1"/><circle class="cls-2" cx="537" cy="1282" r="1"/><circle class="cls-2" cx="921" cy="872" r="1"/><circle class="cls-2" cx="794" cy="1019" r="1"/><circle class="cls-2" cx="608" cy="1070" r="1"/><circle class="cls-2" cx="1045" cy="1195" r="1"/><circle class="cls-2" cx="1233" cy="1218" r="1"/><circle class="cls-2" cx="827" cy="1276" r="1"/><circle class="cls-2" cx="1211" cy="866" r="1"/><circle class="cls-2" cx="1084" cy="1013" r="1"/><circle class="cls-2" cx="898" cy="1064" r="1"/><circle class="cls-2" cx="465" cy="274" r="1"/><circle class="cls-2" cx="442" cy="462" r="1"/><circle class="cls-2" cx="384" cy="56" r="1"/><circle class="cls-2" cx="794" cy="440" r="1"/><circle class="cls-2" cx="647" cy="313" r="1"/><circle class="cls-2" cx="596" cy="127" r="1"/><circle class="cls-2" cx="727" cy="864" r="1"/><circle class="cls-2" cx="676" cy="678" r="1"/><circle class="cls-2" cx="412" cy="1411" r="1"/><circle class="cls-2" cx="435" cy="1223" r="1"/><circle class="cls-2" cx="493" cy="1629" r="1"/><circle class="cls-2" cx="83" cy="1245" r="1"/><circle class="cls-2" cx="230" cy="1372" r="1"/><circle class="cls-2" cx="281" cy="1558" r="1"/><circle class="cls-2" cx="406" cy="1121" r="1"/><circle class="cls-2" cx="429" cy="933" r="1"/><circle class="cls-2" cx="487" cy="1339" r="1"/><circle class="cls-2" cx="77" cy="955" r="1"/><circle class="cls-2" cx="224" cy="1082" r="1"/><circle class="cls-2" cx="275" cy="1268" r="1"/><circle class="cls-2" cx="697" cy="951" r="1"/><circle class="cls-2" cx="104" cy="688" r="1"/><circle class="cls-2" cx="920" cy="2461" r="1"/><circle class="cls-2" cx="839" cy="2243" r="1"/><circle class="cls-2" cx="1249" cy="2627" r="1"/><circle class="cls-2" cx="1102" cy="2500" r="1"/><circle class="cls-2" cx="1051" cy="2314" r="1"/><circle class="cls-2" cx="889" cy="2911" r="1"/><circle class="cls-2" cx="831" cy="2505" r="1"/><circle class="cls-2" cx="1241" cy="2889" r="1"/><circle class="cls-2" cx="1094" cy="2762" r="1"/><circle class="cls-2" cx="1043" cy="2576" r="1"/><circle class="cls-2" cx="150" cy="2506" r="1"/><circle class="cls-2" cx="127" cy="2694" r="1"/><circle class="cls-2" cx="69" cy="2288" r="1"/><circle class="cls-2" cx="479" cy="2672" r="1"/><circle class="cls-2" cx="332" cy="2545" r="1"/><circle class="cls-2" cx="281" cy="2359" r="1"/><circle class="cls-2" cx="156" cy="2796" r="1"/><circle class="cls-2" cx="133" cy="2984" r="1"/><circle class="cls-2" cx="75" cy="2578" r="1"/><circle class="cls-2" cx="485" cy="2962" r="1"/><circle class="cls-2" cx="338" cy="2835" r="1"/><circle class="cls-2" cx="287" cy="2649" r="1"/><circle class="cls-2" cx="591" cy="1862" r="1"/><circle class="cls-2" cx="403" cy="1839" r="1"/><circle class="cls-2" cx="809" cy="1781" r="1"/><circle class="cls-2" cx="425" cy="2191" r="1"/><circle class="cls-2" cx="552" cy="2044" r="1"/><circle class="cls-2" cx="738" cy="1993" r="1"/><circle class="cls-2" cx="301" cy="1868" r="1"/><circle class="cls-2" cx="113" cy="1845" r="1"/><circle class="cls-2" cx="519" cy="1787" r="1"/><circle class="cls-2" cx="135" cy="2197" r="1"/><circle class="cls-2" cx="262" cy="2050" r="1"/><circle class="cls-2" cx="448" cy="1999" r="1"/><circle class="cls-2" cx="881" cy="2789" r="1"/><circle class="cls-2" cx="904" cy="2601" r="1"/><circle class="cls-2" cx="962" cy="3007" r="1"/><circle class="cls-2" cx="552" cy="2623" r="1"/><circle class="cls-2" cx="699" cy="2750" r="1"/><circle class="cls-2" cx="750" cy="2936" r="1"/><circle class="cls-2" cx="619" cy="2199" r="1"/><circle class="cls-2" cx="670" cy="2385" r="1"/><circle class="cls-2" cx="934" cy="1652" r="1"/><circle class="cls-2" cx="911" cy="1840" r="1"/><circle class="cls-2" cx="853" cy="1434" r="1"/><circle class="cls-2" cx="1263" cy="1818" r="1"/><circle class="cls-2" cx="1116" cy="1691" r="1"/><circle class="cls-2" cx="1065" cy="1505" r="1"/><circle class="cls-2" cx="940" cy="1942" r="1"/><circle class="cls-2" cx="917" cy="2130" r="1"/><circle class="cls-2" cx="859" cy="1724" r="1"/><circle class="cls-2" cx="1269" cy="2108" r="1"/><circle class="cls-2" cx="1122" cy="1981" r="1"/><circle class="cls-2" cx="1071" cy="1795" r="1"/><circle class="cls-2" cx="649" cy="2112" r="1"/><circle class="cls-2" cx="1242" cy="2375" r="1"/><circle class="cls-2" cx="236" cy="3227" r="1"/><circle class="cls-2" cx="424" cy="3250" r="1"/><circle class="cls-2" cx="18" cy="3308" r="1"/><circle class="cls-2" cx="402" cy="2898" r="1"/><circle class="cls-2" cx="275" cy="3045" r="1"/><circle class="cls-2" cx="89" cy="3096" r="1"/><circle class="cls-2" cx="526" cy="3221" r="1"/><circle class="cls-2" cx="714" cy="3244" r="1"/><circle class="cls-2" cx="308" cy="3302" r="1"/><circle class="cls-2" cx="692" cy="2892" r="1"/><circle class="cls-2" cx="565" cy="3039" r="1"/><circle class="cls-2" cx="379" cy="3090" r="1"/><circle class="cls-2" cx="1105" cy="2962" r="1"/><circle class="cls-2" cx="1323" cy="2881" r="1"/><circle class="cls-2" cx="939" cy="3291" r="1"/><circle class="cls-2" cx="1066" cy="3144" r="1"/><circle class="cls-2" cx="1252" cy="3093" r="1"/><circle class="cls-2" cx="1033" cy="2887" r="1"/><circle class="cls-2" cx="649" cy="3297" r="1"/><circle class="cls-2" cx="776" cy="3150" r="1"/><circle class="cls-2" cx="962" cy="3099" r="1"/><circle class="cls-2" cx="1262" cy="3267" r="1"/><circle class="cls-2" cx="369" cy="1660" r="1"/><circle class="cls-2" cx="392" cy="1472" r="1"/><circle class="cls-2" cx="450" cy="1878" r="1"/><circle class="cls-2" cx="40" cy="1494" r="1"/><circle class="cls-2" cx="187" cy="1621" r="1"/><circle class="cls-2" cx="238" cy="1807" r="1"/><circle class="cls-2" cx="682" cy="579" r="1"/><circle class="cls-2" cx="705" cy="391" r="1"/><circle class="cls-2" cx="763" cy="797" r="1"/><circle class="cls-2" cx="353" cy="413" r="1"/><circle class="cls-2" cx="500" cy="540" r="1"/><circle class="cls-2" cx="551" cy="726" r="1"/><circle class="cls-2" cx="883" cy="226" r="1"/><circle class="cls-2" cx="136" cy="390" r="1"/><circle class="cls-2" cx="41" cy="300" r="1"/></svg>